<svg version="1.1" id="Layer_1" xmlns="http://www.w3.org/2000/svg" xmlns:xlink="http://www.w3.org/1999/xlink" x="0px" y="0px"
	 width="44px" height="36.001px" viewBox="0 0 44 36.001" style="enable-background:new 0 0 44 36.001;" xml:space="preserve">

	 <path style="fill-rule:evenodd;clip-rule:evenodd;" fill="white" d="M40,8c-2.209,0-4-1.791-4-4s1.791-4,4-4c2.209,0,4,1.792,4,4S42.209,8,40,8zM40,2c-1.104,0-2,0.896-2,2c0,1.105,0.896,2,2,2s2-0.895,2-2C42,2.896,41.105,2,40,2z M28,24c-2.209,0-4-1.791-4-4
	c0-2.209,1.791-4,4-4c2.208,0,4,1.791,4,4C32,22.209,30.209,24,28,24z M28,18c-1.104,0-2,0.896-2,2c0,1.105,0.896,2,2,2s2-0.895,2-2
	C30,18.896,29.105,18,28,18z M16,14c-2.209,0-4-1.791-4-4c0-2.209,1.791-4,4-4c2.209,0,4,1.791,4,4C20,12.21,18.209,14,16,14z M16,8
	c-1.104,0-2,0.896-2,2c0,1.104,0.896,2,2,2c1.105,0,2-0.896,2-2C18,8.896,17.105,8,16,8z M4,26c-2.209,0-4-1.791-4-4
	c0-2.209,1.791-4,4-4c2.209,0,4,1.791,4,4C8,24.209,6.209,26,4,26z M4,20c-1.104,0-2,0.896-2,2c0,1.105,0.895,2,2,2
	c1.105,0,2-0.896,2-2C6,20.896,5.105,20,4,20z M1,34.001h42c0.552,0,1,0.447,1,1c0,0.552-0.448,1-1,1H1c-0.553,0-1-0.448-1-1
	C0,34.448,0.448,34.001,1,34.001z"/>
</svg>