<svg version="1.1" id="Layer_1" xmlns="http://www.w3.org/2000/svg" xmlns:xlink="http://www.w3.org/1999/xlink" x="0px" y="0px"
	 width="43.989px" height="36.011px" viewBox="0 0 43.989 36.011" style="enable-background:new 0 0 43.989 36.011;"
	 xml:space="preserve">
<path style="fill-rule:evenodd;clip-rule:evenodd;" fill="white" d="M43.989,24.021c0,5.52-4.475,9.995-9.996,9.995
	c-1.066,0-2.092-0.171-3.056-0.48c-1.895,1.546-4.312,2.475-6.947,2.475c-3.069,0-5.841-1.259-7.836-3.286
	c-1.54,0.823-3.297,1.293-5.165,1.293C4.92,34.018,0,29.09,0,23.012c0-4.28,2.445-7.978,6.009-9.795
	c-0.002-0.067-0.01-0.133-0.01-0.2c0-4.178,3.193-7.605,7.266-7.973C15.828,1.965,19.679,0,24,0c7.732,0,14,6.268,14,14
	c0,0.286-0.021,0.566-0.038,0.848C41.507,16.384,43.989,19.911,43.989,24.021z M35.784,16.231c0.136-0.723,0.214-1.467,0.214-2.23
	c0-6.627-5.373-12-12-12c-4.026,0-7.58,1.989-9.757,5.032c-0.085-0.003-0.165-0.025-0.25-0.025c-3.311,0-5.995,2.69-5.995,6.008
	c0,0.501,0.082,0.978,0.197,1.442c-3.596,1.178-6.195,4.56-6.195,8.555c0,4.973,4.025,9.004,8.992,9.004
	c2.104,0,4.035-0.726,5.564-1.938c1.62,2.374,4.345,3.933,7.436,3.933c2.567,0,4.877-1.081,6.517-2.805
	c1.055,0.513,2.235,0.809,3.487,0.809c4.416,0,7.996-3.58,7.996-7.996C41.989,20.219,39.336,17.046,35.784,16.231z"/>
</svg>