<svg version="1.1" id="Layer_1" xmlns="http://www.w3.org/2000/svg" xmlns:xlink="http://www.w3.org/1999/xlink" x="0px" y="0px"
	 width="40px" height="40px" viewBox="0 0 40 40" style="enable-background:new 0 0 40 40;" xml:space="preserve">
<path style="fill-rule:evenodd;clip-rule:evenodd;" fill="white" d="M20,40C8.954,40,0,31.045,0,20S8.954,0,20,0c11.046,0,20,8.955,20,20
	S31.045,40,20,40z M35.902,28.427c-2.14,1.196-4.835,2.426-7.831,3.314c-0.816,2.234-1.849,4.134-3.05,5.535
	C29.73,35.909,33.643,32.674,35.902,28.427z M20,38c2.297,0,4.361-2.19,5.818-5.68C23.945,32.732,21.995,33,20,33
	s-3.945-0.268-5.817-0.679C15.64,35.81,17.703,38,20,38z M12.028,21.263C14.452,21.736,17.152,22,20,22
	c2.848,0,5.548-0.265,7.972-0.737C27.984,20.844,28,20.426,28,20c0-2.427-0.216-4.739-0.604-6.852C25.113,13.693,22.585,14,20,14
	c-2.585,0-5.113-0.307-7.396-0.852C12.216,15.261,12,17.573,12,20C12,20.426,12.015,20.844,12.028,21.263z M27.864,23.223
	C25.398,23.719,22.734,24,20,24s-5.398-0.28-7.865-0.777c0.201,2.494,0.634,4.802,1.239,6.825C15.536,30.625,17.794,31,20,31
	c2.301,0,4.497-0.307,6.585-0.813C27.213,28.132,27.659,25.773,27.864,23.223z M14.978,37.276c-1.201-1.4-2.233-3.299-3.049-5.533
	c-2.997-0.888-5.692-2.118-7.832-3.317C6.356,32.674,10.269,35.909,14.978,37.276z M2,20c0,1.898,0.305,3.721,0.85,5.438
	c1.908,1.233,4.906,2.793,8.326,3.948c-0.542-2.028-0.917-4.261-1.081-6.632c-3.282-0.866-6.085-2.142-8.057-3.68
	C2.022,19.381,2,19.688,2,20z M5.17,9.816c-1.433,2.079-2.441,4.472-2.895,7.059c1.501,1.64,4.249,3.015,7.752,3.928
	C10.021,20.533,10,20.272,10,20c0-2.612,0.262-5.094,0.718-7.378C8.457,11.905,6.53,10.944,5.17,9.816z M6.432,8.198
	c1.215,0.983,2.828,1.825,4.748,2.464c0.878-3.295,2.188-6.061,3.798-7.938C11.618,3.699,8.669,5.631,6.432,8.198z M20,2
	c-2.995,0-5.601,3.708-6.972,9.189C15.136,11.703,17.494,12,20,12c2.506,0,4.863-0.298,6.972-0.813C25.6,5.708,22.994,2,20,2z
	 M25.021,2.724c1.61,1.876,2.92,4.642,3.798,7.937c1.919-0.639,3.532-1.481,4.747-2.464C31.329,5.63,28.381,3.699,25.021,2.724z
	 M34.829,9.815c-1.361,1.128-3.285,2.09-5.547,2.807C29.738,14.906,30,17.388,30,20c0,0.272-0.022,0.532-0.027,0.801
	c3.507-0.915,6.251-2.295,7.749-3.939C37.267,14.28,36.259,11.891,34.829,9.815z M29.904,22.755
	c-0.169,2.444-0.566,4.736-1.136,6.813c3.115-1.015,5.941-2.48,8.389-4.158C37.697,23.702,38,21.888,38,20
	c0-0.312-0.023-0.619-0.039-0.927C35.989,20.612,33.187,21.889,29.904,22.755z"/>
</svg>