<?xml version="1.0" standalone="no"?>
<!DOCTYPE svg PUBLIC "-//W3C//DTD SVG 20010904//EN"
 "http://www.w3.org/TR/2001/REC-SVG-20010904/DTD/svg10.dtd">
<svg version="1.0" xmlns="http://www.w3.org/2000/svg"
 width="276.000000pt" height="276.000000pt" viewBox="0 0 276.000000 276.000000"
 preserveAspectRatio="xMidYMid meet">

<g transform="translate(0.000000,276.000000) scale(0.100000,-0.100000)"
fill="white" stroke="none">
<path d="M1170 2745 c-608 -101 -1062 -561 -1157 -1170 -41 -266 21 -613 150
-845 96 -173 257 -356 406 -463 342 -247 788 -327 1183 -212 845 245 1252
1189 847 1964 -70 134 -148 237 -263 349 -191 186 -399 299 -654 358 -138 31
-384 41 -512 19z m440 -91 c532 -93 948 -515 1045 -1058 26 -144 17 -382 -20
-525 -122 -473 -474 -824 -947 -946 -142 -37 -380 -46 -524 -20 -483 86 -868
420 -1017 880 -80 248 -81 545 -2 790 61 190 195 406 331 536 194 184 458 315
702 349 163 22 283 20 432 -6z"/>
<path d="M798 2210 c-43 -13 -84 -47 -102 -84 -14 -30 -16 -110 -16 -749 l0
-714 23 -34 c12 -18 38 -44 57 -56 l34 -23 600 2 c583 3 602 4 627 23 15 11
37 35 50 54 l24 35 3 693 c2 487 -1 706 -9 735 -14 52 -63 103 -114 117 -47
13 -1134 14 -1177 1z m1167 -86 c44 -17 45 -33 45 -609 l0 -545 -625 0 -625 0
0 551 0 551 29 29 29 29 565 0 c311 0 573 -3 582 -6z m45 -1338 c0 -86 -2 -98
-24 -123 l-24 -28 -576 0 -575 0 -23 23 c-20 20 -23 34 -26 122 l-4 100 626 0
626 0 0 -94z"/>
</g>
</svg>
