<svg version="1.1" id="Layer_1" xmlns="http://www.w3.org/2000/svg" xmlns:xlink="http://www.w3.org/1999/xlink" x="0px" y="0px"
	 width="24px" height="40px" viewBox="0 0 24 40" style="enable-background:new 0 0 24 40;" xml:space="preserve">
<path style="fill-rule:evenodd;clip-rule:evenodd;" fill="white" d="M20,40H4c-2.209,0-4-1.791-4-4V4c0-2.209,1.791-4,4-4h16c2.209,0,4,1.791,4,4
	v32C24,38.209,22.209,40,20,40z M22,4c0-1.104-0.895-2-2-2H4C2.896,2,2,2.895,2,4V30h20V4z M22,32H2V36c0,1.105,0.896,2,2,2h16
	c1.105,0,2-0.895,2-2V32z M12,36c-0.552,0-1-0.448-1-1s0.448-1,1-1c0.552,0,1,0.448,1,1S12.553,36,12,36z"/>
</svg>