<?xml version="1.0" standalone="no"?>
<!DOCTYPE svg PUBLIC "-//W3C//DTD SVG 20010904//EN"
 "http://www.w3.org/TR/2001/REC-SVG-20010904/DTD/svg10.dtd">
<svg version="1.0" xmlns="http://www.w3.org/2000/svg"
 width="276.000000pt" height="276.000000pt" viewBox="0 0 276.000000 276.000000"
 preserveAspectRatio="xMidYMid meet">

<g transform="translate(0.000000,276.000000) scale(0.100000,-0.100000)"
fill="white" stroke="none">
<path d="M1170 2745 c-608 -101 -1062 -561 -1157 -1170 -41 -266 21 -613 150
-845 96 -173 257 -356 406 -463 342 -247 788 -327 1183 -212 845 245 1252
1189 847 1964 -70 134 -148 237 -263 349 -191 186 -399 299 -654 358 -138 31
-384 41 -512 19z m440 -91 c532 -93 948 -515 1045 -1058 26 -144 17 -382 -20
-525 -122 -473 -474 -824 -947 -946 -142 -37 -380 -46 -524 -20 -483 86 -868
420 -1017 880 -80 248 -81 545 -2 790 61 190 195 406 331 536 194 184 458 315
702 349 163 22 283 20 432 -6z"/>
<path d="M987 2196 c-50 -18 -76 -42 -98 -91 -17 -38 -19 -81 -19 -720 0 -374
5 -698 10 -719 12 -52 37 -85 86 -110 37 -20 54 -21 409 -21 363 0 371 0 411
22 23 12 53 39 65 60 l24 38 3 693 c2 487 -1 705 -9 734 -14 52 -63 103 -114
117 -62 17 -719 14 -768 -3z m756 -87 c14 -6 30 -22 36 -36 8 -16 11 -191 11
-568 l0 -545 -415 0 -415 0 0 553 c0 582 -1 570 45 595 28 16 705 16 738 1z
m47 -1335 c0 -92 -1 -97 -29 -125 l-29 -29 -357 0 -357 0 -29 29 c-28 28 -29
33 -29 125 l0 96 415 0 415 0 0 -96z"/>
</g>
</svg>
