<svg version="1.1" id="Layer_1" xmlns="http://www.w3.org/2000/svg" xmlns:xlink="http://www.w3.org/1999/xlink" x="0px" y="0px"
	 width="48px" height="36px" viewBox="0 0 48 36" style="enable-background:new 0 0 48 36;" xml:space="preserve">
<path style="fill-rule:evenodd;clip-rule:evenodd;" fill="white" d="M47,36H1c-0.552,0-1-0.448-1-1s0.448-1,1-1h46c0.552,0,1,0.448,1,1
	S47.552,36,47,36z M3,4c0-2.209,1.791-4,4-4h34c2.209,0,4,1.791,4,4v28H3V4z M5,30h38V4c0-1.104-0.896-2-2-2H7C5.895,2,5,2.896,5,4
	V30z"/>
</svg>