<svg version="1.1" id="Layer_1" xmlns="http://www.w3.org/2000/svg" xmlns:xlink="http://www.w3.org/1999/xlink" x="0px" y="0px"
	 width="32px" height="46px" viewBox="0 0 32 46" style="enable-background:new 0 0 32 46;" xml:space="preserve">
<path style="fill-rule:evenodd;clip-rule:evenodd;" fill="white" d="M28,46H4c-2.209,0-4-1.791-4-4V22c0-2.209,1.791-4,4-4h0v-6h0
	C4,5.373,9.373,0,16,0s12,5.373,12,12v6c2.209,0,4,1.791,4,4v20C32,44.209,30.209,46,28,46z M26,12L26,12L26,12
	c0-5.523-4.477-10-10-10S6,6.477,6,12l0,0h0v6h20V12z M30,22c0-1.104-0.895-2-2-2H4c-1.104,0-2,0.896-2,2v20c0,1.105,0.896,2,2,2h24
	c1.105,0,2-0.895,2-2V22z M17,33.858V37c0,0.552-0.448,1-1,1c-0.553,0-1-0.448-1-1v-3.142c-1.723-0.446-3-1.997-3-3.859
	c0-2.209,1.791-4,4-4c2.209,0,4,1.791,4,4C20,31.861,18.723,33.413,17,33.858z M16,28c-1.104,0-2,0.896-2,2s0.895,2,2,2
	c1.105,0,2-0.896,2-2S17.105,28,16,28z"/>
</svg>