<?xml version="1.0" standalone="no"?>
<!DOCTYPE svg PUBLIC "-//W3C//DTD SVG 20010904//EN"
 "http://www.w3.org/TR/2001/REC-SVG-20010904/DTD/svg10.dtd">
<svg version="1.0" xmlns="http://www.w3.org/2000/svg"
 width="283.000000pt" height="283.000000pt" viewBox="0 0 283.000000 283.000000"
 preserveAspectRatio="xMidYMid meet">

<g transform="translate(0.000000,283.000000) scale(0.100000,-0.100000)"
fill="white" stroke="none">
<path d="M1245 2820 c-528 -62 -986 -428 -1163 -931 -58 -165 -75 -266 -75
-459 -2 -315 65 -543 230 -793 206 -312 540 -535 912 -607 79 -16 131 -19 296
-16 215 4 300 19 469 82 373 141 679 447 820 820 63 169 78 254 82 469 4 225
-9 316 -66 486 -136 406 -479 749 -885 884 -173 58 -442 87 -620 65z m407 -94
c530 -101 945 -507 1063 -1039 25 -110 30 -350 11 -475 -42 -276 -171 -528
-376 -732 -272 -272 -599 -400 -985 -387 -217 8 -365 45 -550 139 -312 158
-550 432 -660 762 -48 141 -65 235 -69 381 -22 678 470 1263 1144 1359 114 16
315 12 422 -8z"/>
<path d="M670 2170 c0 -13 -7 -20 -20 -20 -13 0 -20 -7 -20 -20 0 -13 -7 -20
-20 -20 -20 0 -20 -7 -20 -625 0 -618 0 -625 20 -625 13 0 20 -7 20 -20 0 -13
7 -20 20 -20 15 0 20 -7 20 -25 l0 -25 250 0 250 0 0 -40 c0 -29 -4 -40 -15
-40 -13 0 -14 4 -5 20 9 16 8 20 -5 20 -12 0 -15 -17 -15 -105 l0 -105 290 0
290 0 0 105 c0 88 -3 105 -15 105 -13 0 -14 -4 -5 -20 9 -16 8 -20 -5 -20 -11
0 -15 11 -15 40 l0 40 250 0 250 0 0 25 c0 18 5 25 20 25 13 0 20 7 20 20 0
15 7 20 25 20 l25 0 0 625 0 625 -25 0 c-18 0 -25 5 -25 20 0 13 -7 20 -20 20
-13 0 -20 7 -20 20 0 20 -7 20 -750 20 -743 0 -750 0 -750 -20z m1460 -80 c0
-13 7 -20 20 -20 20 0 20 -7 20 -480 l0 -480 -750 0 -750 0 0 480 c0 473 0
480 20 480 13 0 20 7 20 20 0 20 7 20 710 20 703 0 710 0 710 -20z m40 -1130
c0 -53 -2 -60 -20 -60 -13 0 -20 -7 -20 -20 0 -20 -7 -20 -710 -20 -703 0
-710 0 -710 20 0 13 -7 20 -20 20 -18 0 -20 7 -20 60 l0 60 750 0 750 0 0 -60z
m-580 -230 c0 -31 4 -40 17 -40 13 0 14 3 5 12 -16 16 -15 28 3 28 12 0 15
-13 15 -60 l0 -60 -210 0 -210 0 0 60 c0 55 2 60 22 60 20 0 21 -1 3 -20 -18
-19 -17 -20 3 -20 19 0 22 6 22 40 l0 40 165 0 165 0 0 -40z"/>
</g>
</svg>
